<svg xmlns="http://www.w3.org/2000/svg" width="300" height="76" viewBox="0 0 300 76" role="img" aria-label="GitHub">
<title>GitHub</title>
<defs>
<clipPath id="card"><rect width="300" height="76" rx="38"/></clipPath>
<filter id="grain" x="0" y="0" width="100%" height="100%">
<feTurbulence type="fractalNoise" baseFrequency=".85" numOctaves="2" stitchTiles="stitch"/>
<feColorMatrix values="0 0 0 0 1  0 0 0 0 1  0 0 0 0 1  0 0 0 .55 0"/>
</filter>
<linearGradient id="sg" x1="0" x2="1"><stop offset="0" stop-color="#e3e9f0" stop-opacity="0"/><stop offset=".5" stop-color="#e3e9f0" stop-opacity=".16"/><stop offset="1" stop-color="#e3e9f0" stop-opacity="0"/></linearGradient>
</defs>
<style>
.sans{font-family:'Inter','SF Pro Display','Segoe UI','Helvetica Neue',Helvetica,Arial,sans-serif}
.serif{font-family:'Instrument Serif','Playfair Display','Iowan Old Style',Georgia,'Times New Roman',serif;font-style:italic;font-weight:400}
.mono{font-family:'JetBrains Mono','SF Mono',ui-monospace,Menlo,Consolas,'DejaVu Sans Mono',monospace;letter-spacing:.12em}
.rise{animation:rise 1.1s cubic-bezier(.16,1,.3,1) both}
.rise-xl{animation:rise-xl 1.3s cubic-bezier(.16,1,.3,1) both}
.fade{animation:fade 1s ease both}
.fade-up{animation:fade-up 1s cubic-bezier(.16,1,.3,1) both}
.draw-x{transform-box:fill-box;transform-origin:0 50%;animation:draw-x 1.4s cubic-bezier(.76,0,.24,1) both}
.draw-y{transform-box:fill-box;transform-origin:50% 0;animation:draw-y 1.4s cubic-bezier(.76,0,.24,1) both}
.pop{transform-box:fill-box;transform-origin:center;animation:pop .9s cubic-bezier(.16,1,.3,1) both}
.spin{transform-box:fill-box;transform-origin:center;animation:spin 18s linear infinite}
.pulse{transform-box:fill-box;transform-origin:center;animation:pulse 2.4s ease-out infinite}
.blink{animation:blink 1.6s ease-in-out infinite}
@keyframes rise{from{transform:translateY(80px)}}
@keyframes rise-xl{from{transform:translateY(260px)}}
@keyframes fade{from{opacity:0}}
@keyframes fade-up{from{opacity:0;transform:translateY(24px)}}
@keyframes draw-x{from{transform:scaleX(0)}}
@keyframes draw-y{from{transform:scaleY(0)}}
@keyframes pop{from{transform:scale(0)}}
@keyframes spin{to{transform:rotate(360deg)}}
@keyframes pulse{0%{transform:scale(.6);opacity:.9}100%{transform:scale(2.6);opacity:0}}
@keyframes blink{50%{opacity:.25}}
@media (prefers-reduced-motion:reduce){*{animation:none!important}}

.shine{animation:shine 4s cubic-bezier(.76,0,.24,1) infinite;animation-delay:2.40s}
@keyframes shine{0%{transform:translateX(-160px)}35%,100%{transform:translateX(460px)}}
</style>
<g clip-path="url(#card)">
<rect width="300" height="76" fill="#050a14"/>

<rect width="300" height="76" fill="#0a1322"/>
<g class="shine"><rect x="0" y="-20" width="110" height="116" fill="url(#sg)" transform="skewX(-20)"/></g>
<g class="fade-up" style="animation-delay:0.42s">
<g transform="translate(28 26)"><path d="M12 .297c-6.63 0-12 5.373-12 12 0 5.303 3.438 9.8 8.205 11.385.6.113.82-.258.82-.577 0-.285-.01-1.04-.015-2.04-3.338.724-4.042-1.61-4.042-1.61C4.422 18.07 3.633 17.7 3.633 17.7c-1.087-.744.084-.729.084-.729 1.205.084 1.838 1.236 1.838 1.236 1.07 1.835 2.809 1.305 3.495.998.108-.776.417-1.305.76-1.605-2.665-.3-5.466-1.332-5.466-5.93 0-1.31.465-2.38 1.235-3.22-.135-.303-.54-1.523.105-3.176 0 0 1.005-.322 3.3 1.23.96-.267 1.98-.399 3-.405 1.02.006 2.04.138 3 .405 2.28-1.552 3.285-1.23 3.285-1.23.645 1.653.24 2.873.12 3.176.765.84 1.23 1.91 1.23 3.22 0 4.61-2.805 5.625-5.475 5.92.42.36.81 1.096.81 2.22 0 1.606-.015 2.896-.015 3.286 0 .315.21.69.825.57C20.565 22.092 24 17.592 24 12.297c0-6.627-5.373-12-12-12" fill="#e3e9f0"/></g>
<text x="72" y="45" class="sans" font-size="21" font-weight="500" fill="#e3e9f0">GitHub</text>
<g transform="translate(260 38)"><circle r="17" fill="#5eead4"/><path d="M-5 5 L5 -5 M-3 -5 H5 V3" stroke="#050a14" stroke-width="2.2" fill="none" stroke-linecap="round" stroke-linejoin="round"/></g>
</g>

<rect width="300" height="76" filter="url(#grain)" opacity=".05"/>
</g>
<rect x=".5" y=".5" width="299" height="75" rx="38" fill="none" stroke="#e3e9f0" stroke-opacity=".08"/>
</svg>
