<svg xmlns="http://www.w3.org/2000/svg" width="600" height="470" viewBox="0 0 600 470" role="img" aria-label="Dungeon Mates — A co-op dungeon crawler I built to play with friends — real-time, right in the browser. (Next.js, Socket.io, Motion)">
<title>Dungeon Mates — A co-op dungeon crawler I built to play with friends — real-time, right in the browser. (Next.js, Socket.io, Motion)</title>
<defs>
<clipPath id="card"><rect width="600" height="470" rx="28"/></clipPath>
<filter id="grain" x="0" y="0" width="100%" height="100%">
<feTurbulence type="fractalNoise" baseFrequency=".85" numOctaves="2" stitchTiles="stitch"/>
<feColorMatrix values="0 0 0 0 1  0 0 0 0 1  0 0 0 0 1  0 0 0 .55 0"/>
</filter>

<linearGradient id="area" x1="0" y1="0" x2="0" y2="1"><stop offset="0" stop-color="#fb923c" stop-opacity=".5"/><stop offset="1" stop-color="#fb923c" stop-opacity="0"/></linearGradient>
<radialGradient id="glow" cx=".5" cy=".3" r=".7"><stop offset="0" stop-color="#fb923c" stop-opacity=".22"/><stop offset="1" stop-color="#fb923c" stop-opacity="0"/></radialGradient>
<linearGradient id="border" gradientUnits="userSpaceOnUse" x1="0" y1="0" x2="600" y2="0">
  <stop offset="0" stop-color="#fb923c" stop-opacity="0"/><stop offset=".5" stop-color="#fb923c"/><stop offset="1" stop-color="#fb923c" stop-opacity="0"/>
  <animateTransform attributeName="gradientTransform" type="translate" values="-700 0;700 0" dur="5s" begin="3.6s" repeatCount="indefinite"/>
</linearGradient>
<clipPath id="stage"><rect x="24" y="64" width="552" height="224" rx="16"/></clipPath>

</defs>
<style>
.sans{font-family:'Inter','SF Pro Display','Segoe UI','Helvetica Neue',Helvetica,Arial,sans-serif}
.serif{font-family:'Instrument Serif','Playfair Display','Iowan Old Style',Georgia,'Times New Roman',serif;font-style:italic;font-weight:400}
.mono{font-family:'JetBrains Mono','SF Mono',ui-monospace,Menlo,Consolas,'DejaVu Sans Mono',monospace;letter-spacing:.12em}
.rise{animation:rise 1.1s cubic-bezier(.16,1,.3,1) both}
.rise-xl{animation:rise-xl 1.3s cubic-bezier(.16,1,.3,1) both}
.fade{animation:fade 1s ease both}
.fade-up{animation:fade-up 1s cubic-bezier(.16,1,.3,1) both}
.draw-x{transform-box:fill-box;transform-origin:0 50%;animation:draw-x 1.4s cubic-bezier(.76,0,.24,1) both}
.draw-y{transform-box:fill-box;transform-origin:50% 0;animation:draw-y 1.4s cubic-bezier(.76,0,.24,1) both}
.pop{transform-box:fill-box;transform-origin:center;animation:pop .9s cubic-bezier(.16,1,.3,1) both}
.spin{transform-box:fill-box;transform-origin:center;animation:spin 18s linear infinite}
.pulse{transform-box:fill-box;transform-origin:center;animation:pulse 2.4s ease-out infinite}
.blink{animation:blink 1.6s ease-in-out infinite}
@keyframes rise{from{transform:translateY(80px)}}
@keyframes rise-xl{from{transform:translateY(260px)}}
@keyframes fade{from{opacity:0}}
@keyframes fade-up{from{opacity:0;transform:translateY(24px)}}
@keyframes draw-x{from{transform:scaleX(0)}}
@keyframes draw-y{from{transform:scaleY(0)}}
@keyframes pop{from{transform:scale(0)}}
@keyframes spin{to{transform:rotate(360deg)}}
@keyframes pulse{0%{transform:scale(.6);opacity:.9}100%{transform:scale(2.6);opacity:0}}
@keyframes blink{50%{opacity:.25}}
@media (prefers-reduced-motion:reduce){*{animation:none!important}}

.trace{animation:trace 4.5s cubic-bezier(.76,0,.24,1) infinite}
@keyframes trace{0%{stroke-dashoffset:1}55%,85%{stroke-dashoffset:0}100%{stroke-dashoffset:-1}}
.bob{transform-box:fill-box;transform-origin:50% 100%;animation:bob 2.2s ease-in-out infinite alternate}
@keyframes bob{to{transform:scaleY(.55)}}
.float{animation:float 3.6s ease-in-out infinite alternate}
@keyframes float{to{transform:translateY(-10px)}}
.twinkle{transform-box:fill-box;transform-origin:center;animation:twinkle 2.5s ease-in-out infinite}
@keyframes twinkle{50%{transform:scale(.6);opacity:.4}}
.breathe{transform-box:fill-box;transform-origin:center;animation:breathe 5s ease-in-out infinite}
@keyframes breathe{50%{transform:scale(1.18);stroke-opacity:.1}}
.wave{animation:wave 6s linear infinite}
@keyframes wave{to{transform:translateX(-200px)}}
.torch{animation:torch 1.8s steps(3) infinite alternate}
@keyframes torch{to{opacity:.45}}
.hop{animation:hop 1.2s cubic-bezier(.5,0,.5,1) infinite alternate}
@keyframes hop{to{transform:translateY(-6px)}}
.arrow{animation:arrow 2.6s cubic-bezier(.76,0,.24,1) infinite}
@keyframes arrow{0%,40%{transform:translate(0,0)}50%{transform:translate(18px,-18px)}50.01%{transform:translate(-18px,18px)}60%,100%{transform:translate(0,0)}}
</style>
<g clip-path="url(#card)">
<rect width="600" height="470" fill="#050a14"/>

<rect width="600" height="470" fill="url(#glow)"/>
<clipPath id="k1"><rect x="0" y="18" width="300" height="40"/></clipPath><g clip-path="url(#k1)"><g class="rise" style="animation-delay:0.10s"><text x="32" y="44" class="mono" font-size="12" fill="#fb923c">(06)</text></g></g>
<clipPath id="k2"><rect x="300" y="18" width="300" height="40"/></clipPath><g clip-path="url(#k2)"><g class="rise" style="animation-delay:0.16s"><text x="568" y="44" text-anchor="end" class="mono" font-size="12" fill="#7d8aa0">GAME · REALTIME</text></g></g>
<g clip-path="url(#stage)" class="fade" style="animation-delay:0.25s">
  <rect x="24" y="64" width="552" height="224" fill="#050a14" fill-opacity=".6"/>
  <g transform="translate(0 82)"><rect x="72" y="12" width="34" height="34" rx="4" fill="#fb923c" opacity="0.05" style="animation-delay:0.0s"/><rect x="110" y="12" width="34" height="34" rx="4" fill="#fb923c" opacity="0.10" class="torch" style="animation-delay:0.9s"/><rect x="148" y="12" width="34" height="34" rx="4" fill="#fb923c" opacity="0.15" style="animation-delay:1.8s"/><rect x="186" y="12" width="34" height="34" rx="4" fill="#fb923c" opacity="0.19" style="animation-delay:2.7s"/><rect x="224" y="12" width="34" height="34" rx="4" fill="#fb923c" opacity="0.08" style="animation-delay:0.6s"/><rect x="262" y="12" width="34" height="34" rx="4" fill="#fb923c" opacity="0.13" style="animation-delay:1.5s"/><rect x="300" y="12" width="34" height="34" rx="4" fill="#fb923c" opacity="0.18" style="animation-delay:2.4s"/><rect x="338" y="12" width="34" height="34" rx="4" fill="#fb923c" opacity="0.07" style="animation-delay:0.3s"/><rect x="376" y="12" width="34" height="34" rx="4" fill="#fb923c" opacity="0.11" style="animation-delay:1.2s"/><rect x="414" y="12" width="34" height="34" rx="4" fill="#fb923c" opacity="0.16" class="torch" style="animation-delay:2.1s"/><rect x="452" y="12" width="34" height="34" rx="4" fill="#fb923c" opacity="0.05" style="animation-delay:0.0s"/><rect x="490" y="12" width="34" height="34" rx="4" fill="#fb923c" opacity="0.10" class="torch" style="animation-delay:0.9s"/><rect x="72" y="50" width="34" height="34" rx="4" fill="#fb923c" opacity="0.16" class="torch" style="animation-delay:2.1s"/><rect x="110" y="50" width="34" height="34" rx="4" fill="#fb923c" opacity="0.05" style="animation-delay:0.0s"/><rect x="148" y="50" width="34" height="34" rx="4" fill="#fb923c" opacity="0.10" class="torch" style="animation-delay:0.9s"/><rect x="186" y="50" width="34" height="34" rx="4" fill="#fb923c" opacity="0.15" style="animation-delay:1.8s"/><rect x="224" y="50" width="34" height="34" rx="4" fill="#fb923c" opacity="0.19" style="animation-delay:2.7s"/><rect x="262" y="50" width="34" height="34" rx="4" fill="#fb923c" opacity="0.08" style="animation-delay:0.6s"/><rect x="300" y="50" width="34" height="34" rx="4" fill="#fb923c" opacity="0.13" style="animation-delay:1.5s"/><rect x="338" y="50" width="34" height="34" rx="4" fill="#fb923c" opacity="0.18" style="animation-delay:2.4s"/><rect x="376" y="50" width="34" height="34" rx="4" fill="#fb923c" opacity="0.07" style="animation-delay:0.3s"/><rect x="414" y="50" width="34" height="34" rx="4" fill="#fb923c" opacity="0.11" style="animation-delay:1.2s"/><rect x="452" y="50" width="34" height="34" rx="4" fill="#fb923c" opacity="0.16" class="torch" style="animation-delay:2.1s"/><rect x="490" y="50" width="34" height="34" rx="4" fill="#fb923c" opacity="0.05" style="animation-delay:0.0s"/><rect x="72" y="88" width="34" height="34" rx="4" fill="#fb923c" opacity="0.11" style="animation-delay:1.2s"/><rect x="110" y="88" width="34" height="34" rx="4" fill="#fb923c" opacity="0.16" class="torch" style="animation-delay:2.1s"/><rect x="148" y="88" width="34" height="34" rx="4" fill="#fb923c" opacity="0.05" style="animation-delay:0.0s"/><rect x="186" y="88" width="34" height="34" rx="4" fill="#fb923c" opacity="0.10" class="torch" style="animation-delay:0.9s"/><rect x="224" y="88" width="34" height="34" rx="4" fill="#fb923c" opacity="0.15" style="animation-delay:1.8s"/><rect x="262" y="88" width="34" height="34" rx="4" fill="#fb923c" opacity="0.19" style="animation-delay:2.7s"/><rect x="300" y="88" width="34" height="34" rx="4" fill="#fb923c" opacity="0.08" style="animation-delay:0.6s"/><rect x="338" y="88" width="34" height="34" rx="4" fill="#fb923c" opacity="0.13" style="animation-delay:1.5s"/><rect x="376" y="88" width="34" height="34" rx="4" fill="#fb923c" opacity="0.18" style="animation-delay:2.4s"/><rect x="414" y="88" width="34" height="34" rx="4" fill="#fb923c" opacity="0.07" style="animation-delay:0.3s"/><rect x="452" y="88" width="34" height="34" rx="4" fill="#fb923c" opacity="0.11" style="animation-delay:1.2s"/><rect x="490" y="88" width="34" height="34" rx="4" fill="#fb923c" opacity="0.16" class="torch" style="animation-delay:2.1s"/><rect x="72" y="126" width="34" height="34" rx="4" fill="#fb923c" opacity="0.07" style="animation-delay:0.3s"/><rect x="110" y="126" width="34" height="34" rx="4" fill="#fb923c" opacity="0.11" style="animation-delay:1.2s"/><rect x="148" y="126" width="34" height="34" rx="4" fill="#fb923c" opacity="0.16" class="torch" style="animation-delay:2.1s"/><rect x="186" y="126" width="34" height="34" rx="4" fill="#fb923c" opacity="0.05" style="animation-delay:0.0s"/><rect x="224" y="126" width="34" height="34" rx="4" fill="#fb923c" opacity="0.10" class="torch" style="animation-delay:0.9s"/><rect x="262" y="126" width="34" height="34" rx="4" fill="#fb923c" opacity="0.15" style="animation-delay:1.8s"/><rect x="300" y="126" width="34" height="34" rx="4" fill="#fb923c" opacity="0.19" style="animation-delay:2.7s"/><rect x="338" y="126" width="34" height="34" rx="4" fill="#fb923c" opacity="0.08" style="animation-delay:0.6s"/><rect x="376" y="126" width="34" height="34" rx="4" fill="#fb923c" opacity="0.13" style="animation-delay:1.5s"/><rect x="414" y="126" width="34" height="34" rx="4" fill="#fb923c" opacity="0.18" style="animation-delay:2.4s"/><rect x="452" y="126" width="34" height="34" rx="4" fill="#fb923c" opacity="0.07" style="animation-delay:0.3s"/><rect x="490" y="126" width="34" height="34" rx="4" fill="#fb923c" opacity="0.11" style="animation-delay:1.2s"/><rect x="187" y="61" width="20" height="20" rx="3" fill="#e3e9f0" class="hop" style="animation-delay:0.0s"/><rect x="225" y="61" width="20" height="20" rx="3" fill="#5eead4" class="hop" style="animation-delay:0.2s"/><rect x="187" y="99" width="20" height="20" rx="3" fill="#8b7bff" class="hop" style="animation-delay:0.4s"/><rect x="225" y="99" width="20" height="20" rx="3" fill="#3b9cff" class="hop" style="animation-delay:0.6s"/><text x="528" y="196" text-anchor="end" class="mono" font-size="12" fill="#fb923c">CO-OP · 2–4 PLAYERS</text></g>
</g>
<rect x="24.5" y="64.5" width="551" height="223" rx="16" fill="none" stroke="#e3e9f0" stroke-opacity=".08"/>
<clipPath id="t"><rect x="0" y="296" width="600" height="64"/></clipPath><g clip-path="url(#t)"><g class="rise" style="animation-delay:0.35s"><text x="30" y="344" class="sans" font-size="46" font-weight="600" letter-spacing="-.03em" fill="#e3e9f0">Dungeon<tspan class="serif" font-weight="400" fill="#fb923c"> Mates</tspan></text></g></g>
<clipPath id="d0"><rect x="0" y="356" width="600" height="26"/></clipPath><g clip-path="url(#d0)"><g class="rise" style="animation-delay:0.50s"><text x="32" y="375" class="sans" font-size="18" fill="#7d8aa0">A co-op dungeon crawler I built to play with</text></g></g>
<clipPath id="d1"><rect x="0" y="380" width="600" height="26"/></clipPath><g clip-path="url(#d1)"><g class="rise" style="animation-delay:0.56s"><text x="32" y="399" class="sans" font-size="18" fill="#7d8aa0">friends — real-time, right in the browser.</text></g></g>
<g class="fade-up" style="animation-delay:0.75s"><rect x="32.0" y="414" width="80.6" height="30" rx="15" fill="none" stroke="#e3e9f0" stroke-opacity=".2"/><text x="72.3" y="434" text-anchor="middle" class="mono" font-size="11" letter-spacing=".04em" fill="#e3e9f0">Next.js</text></g><g class="fade-up" style="animation-delay:0.82s"><rect x="120.6" y="414" width="96.2" height="30" rx="15" fill="none" stroke="#e3e9f0" stroke-opacity=".2"/><text x="168.7" y="434" text-anchor="middle" class="mono" font-size="11" letter-spacing=".04em" fill="#e3e9f0">Socket.io</text></g><g class="fade-up" style="animation-delay:0.89s"><rect x="224.8" y="414" width="72.8" height="30" rx="15" fill="none" stroke="#e3e9f0" stroke-opacity=".2"/><text x="261.2" y="434" text-anchor="middle" class="mono" font-size="11" letter-spacing=".04em" fill="#e3e9f0">Motion</text></g>
<g transform="translate(546 428)">
  <g class="pop" style="animation-delay:0.85s">
    <circle r="24" fill="#fb923c"/>
    <clipPath id="ac"><circle r="24"/></clipPath>
    <g clip-path="url(#ac)"><g class="arrow" style="animation-delay:3.3s"><path d="M-7 7 L7 -7 M-4 -7 H7 V4" stroke="#050a14" stroke-width="2.6" fill="none" stroke-linecap="round" stroke-linejoin="round"/></g></g>
  </g>
</g>
<rect x="1" y="1" width="598" height="468" rx="27" fill="none" stroke="url(#border)" stroke-width="1.5" opacity=".7"/>

<rect width="600" height="470" filter="url(#grain)" opacity=".05"/>
</g>
<rect x=".5" y=".5" width="599" height="469" rx="28" fill="none" stroke="#e3e9f0" stroke-opacity=".08"/>
</svg>
